{"title":"[JRR] Naruto Shippuuden - 386 [Eng.Subbed.720p.x265] [AnimeRG].m","uid":11457396,"size":95418128,"categoryP":"video","categoryS":"hd___tv_shows","magnet":"?xt=urn:btih:307ff03c3c734075128c2ebae4cd42d959d0c45b&amp;dn=%5BJRR%5D+Naruto+Shippuuden+-+386+%5BEng.Subbed.720p.x265%5D+%5BAnimeRG%5D.m&amp;tr=udp%3A%2F%2Ftracker.openbittorrent.com%3A80&amp;tr=udp%3A%2F%2Fopen.demonii.com%3A1337&amp;tr=udp%3A%2F%2Ftracker.coppersurfer.tk%3A6969&amp;tr=udp%3A%2F%2Fexodus.desync.com%3A6969","seeders":5,"leechers":4,"uploader":"JRRtv","files":1,"time":1415957549,"description":"[b]===General===[/b] \nFormat : Matroska \nFormat version : Version 2 \nFile size : 91.0 MiB \nDuration : 23mn 9s \nOverall bit rate mode : Variable \nOverall bit rate : 549 Kbps \n[b]\n===Video===[/b]\nFormat : [b]HEVC[/b] \nFormat/Info : [color=green][b]High Efficiency Video Coding[/b][/color] \nDuration : 23mn 9s \nBit rate : 465 Kbps \nWidth : 1 280 pixels \nHeight : 720 pixels \nDisplay aspect ratio : 16:9 \nFrame rate mode : Constant \nFrame rate : 23.976 fps \nStream size : 77.0 MiB (85%) \n\n[b]===Audio===[/b] \nFormat : Vorbis \nDuration : 23mn 9s \nChannel(s) : 2 channels \nSampling rate : 44.1 KHz \nCompression mode : Lossy \nStream size : 12.2 MiB (13%) \nLanguage : Japanese \n\n[b]===Subtitles===[/b]\nFormat : ASS \nSource : HorribleSubs\nLanguage : English Soft Subbed\n\n[img]http://i.imgur.com/y4iNJAT.png[/img]\n[img]http://i.imgur.com/F8QTVJK.png[/img]\n[img]http://i.imgur.com/aDNXe36.png[/img]","torrent":{"xt":"urn:btih:307ff03c3c734075128c2ebae4cd42d959d0c45b","amp;dn":"%5BJRR%5D+Naruto+Shippuuden+-+386+%5BEng.Subbed.720p.x265%5D+%5BAnimeRG%5D.m","amp;tr":["udp%3A%2F%2Ftracker.openbittorrent.com%3A80","udp%3A%2F%2Fopen.demonii.com%3A1337","udp%3A%2F%2Ftracker.coppersurfer.tk%3A6969","udp%3A%2F%2Fexodus.desync.com%3A6969"],"infoHash":"307ff03c3c734075128c2ebae4cd42d959d0c45b","infoHashBuffer":{"type":"Buffer","data":[48,127,240,60,60,115,64,117,18,140,46,186,228,205,66,217,89,208,196,91]},"announce":[],"urlList":[]}}